# xmcd CD database file
#
# Track frame offsets:
#	187
#	20317
#	40342
#	62725
#	83702
#	105467
#	125520
#	152062
#	178247
#	199430
#	222795
#
# Disc length: 3233 seconds
#
# Revision: 2
# Processed by: cddbd v1.5.2PL0 Copyright (c) Steve Scherf et al.
# Submitted via: CDex 1.51
#
DISCID=950c9f0b
DTITLE=ACES HIGH - TEN 'N OUT
DYEAR=1994
DGENRE=Hard Rock
TTITLE0=Jungle Of Love
TTITLE1=Do You Need
TTITLE2=Nobodys Fool
TTITLE3=Remember
TTITLE4=Piece Of The Action
TTITLE5=Ten 'N Out
TTITLE6=Heartache Breakdown
TTITLE7=Rock The City
TTITLE8=Never Again
TTITLE9=Eternally
TTITLE10=Take Me To Your Heart *
EXTD=YEAR: 1994
EXTT0=
EXTT1=
EXTT2=
EXTT3=
EXTT4=
EXTT5=
EXTT6=
EXTT7=
EXTT8=
EXTT9=
EXTT10=
PLAYORDER=
